<?xml version="1.0" standalone="no"?>
<!DOCTYPE svg PUBLIC "-//W3C//DTD SVG 20010904//EN"
 "http://www.w3.org/TR/2001/REC-SVG-20010904/DTD/svg10.dtd">
<svg version="1.0" xmlns="http://www.w3.org/2000/svg"
 width="116.000000pt" height="87.000000pt" viewBox="0 0 116.000000 87.000000"
 preserveAspectRatio="xMidYMid meet">

<g transform="translate(0.000000,87.000000) scale(0.100000,-0.100000)"
fill="#000000" stroke="none">
<path d="M242 786 c-11 -18 -37 -46 -58 -62 -93 -68 -134 -124 -134 -184 0
-52 125 -169 207 -194 21 -7 21 -5 12 26 -20 71 -10 128 33 174 19 22 19 22
-9 31 -15 6 -37 7 -48 2 -31 -12 -42 -10 -23 4 9 7 21 33 28 57 26 102 30 111
49 100 10 -5 21 -6 25 -3 3 3 6 -2 6 -12 0 -15 -3 -16 -12 -7 -17 17 -38 15
-38 -4 0 -14 12 -21 46 -28 4 0 13 15 21 34 l13 35 -5 -35 -5 -35 20 40 c18
37 19 38 15 10 l-5 -30 14 30 c18 37 10 46 -58 69 -67 22 -71 21 -94 -18z"/>
<path d="M793 799 c-42 -16 -53 -25 -53 -43 0 -21 29 -71 30 -51 0 6 5 3 10
-5 8 -13 10 -13 10 -1 0 11 3 10 13 -3 11 -15 17 -17 35 -7 12 6 22 18 22 26
0 18 -12 19 -28 3 -6 -6 -15 -9 -18 -5 -10 9 -4 14 27 22 26 6 27 4 41 -57 9
-35 19 -72 23 -82 7 -16 5 -18 -8 -13 -15 6 -77 -10 -77 -19 0 -3 9 -17 21
-33 26 -35 34 -95 20 -146 -6 -21 -8 -41 -6 -44 3 -2 23 1 45 8 28 8 66 36
116 83 61 59 74 77 74 102 -1 48 -34 111 -76 142 -37 28 -106 95 -132 128 -16
20 -25 20 -89 -5z m-24 -79 c0 -10 -3 -8 -9 5 -12 27 -12 43 0 25 5 -8 9 -22
9 -30z"/>
<path d="M353 555 c-97 -42 -78 -217 38 -349 45 -51 151 -136 169 -136 18 0
99 62 151 117 61 63 94 117 114 188 21 71 14 119 -21 156 -52 55 -123 46 -201
-25 l-40 -36 -43 40 c-38 35 -92 61 -125 60 -5 -1 -24 -7 -42 -15z"/>
</g>
</svg>
