<?xml version="1.0" standalone="no"?>
<!DOCTYPE svg PUBLIC "-//W3C//DTD SVG 20010904//EN"
 "http://www.w3.org/TR/2001/REC-SVG-20010904/DTD/svg10.dtd">
<svg version="1.0" xmlns="http://www.w3.org/2000/svg"
 width="317.000000pt" height="141.000000pt" viewBox="0 0 317.000000 141.000000"
 preserveAspectRatio="xMidYMid meet">

<g transform="translate(0.000000,141.000000) scale(0.100000,-0.100000)"
fill="#000000" stroke="none">
<path d="M1000 1331 c0 -10 9 -21 20 -24 19 -5 20 -14 20 -125 0 -128 -4 -152
-26 -152 -8 0 -14 -9 -14 -20 0 -18 7 -20 65 -20 60 0 65 2 65 21 0 17 -5 20
-22 17 l-23 -4 3 163 3 163 -45 0 c-38 0 -46 -3 -46 -19z"/>
<path d="M1340 1331 c0 -10 9 -21 20 -24 19 -5 20 -14 20 -137 0 -123 -1 -132
-20 -137 -11 -3 -20 -14 -20 -24 0 -17 8 -19 60 -19 48 0 60 3 60 16 0 9 -9
18 -20 21 -12 3 -17 10 -12 17 4 6 9 38 12 71 5 55 7 60 33 70 40 14 57 -12
57 -88 0 -50 -3 -60 -20 -64 -11 -3 -20 -14 -20 -24 0 -17 8 -19 60 -19 54 0
60 2 60 21 0 15 -5 20 -17 17 -16 -4 -18 3 -15 83 4 79 2 89 -18 109 -22 22
-60 24 -102 5 -16 -6 -18 0 -18 59 l0 66 -50 0 c-42 0 -50 -3 -50 -19z"/>
<path d="M2790 1331 c0 -10 9 -21 20 -24 19 -5 20 -14 20 -137 0 -123 -1 -132
-20 -137 -11 -3 -20 -14 -20 -24 0 -17 8 -19 66 -19 57 0 65 2 62 18 -2 9 -10
18 -18 18 -8 1 -19 2 -24 3 -6 0 -5 6 2 13 8 8 12 58 12 160 l0 148 -50 0
c-42 0 -50 -3 -50 -19z"/>
<path d="M100 1304 c0 -13 8 -24 20 -27 15 -4 20 -14 20 -41 0 -28 -7 -43 -32
-65 -26 -24 -30 -32 -21 -42 10 -10 17 -9 33 6 20 18 20 18 20 -28 0 -55 -7
-77 -26 -77 -8 0 -14 -9 -14 -20 0 -18 7 -20 70 -20 63 0 70 2 70 20 0 16 -7
20 -32 20 -25 0 -29 3 -20 12 7 7 12 36 12 65 0 29 4 53 9 53 5 0 34 -12 65
-26 49 -22 56 -29 56 -55 0 -18 -7 -33 -20 -41 -11 -7 -20 -21 -20 -30 0 -16
10 -18 70 -18 63 0 70 2 70 20 0 14 -7 20 -24 20 -23 0 -24 3 -19 43 4 28 15
52 34 72 22 24 26 34 17 43 -9 9 -16 8 -30 -5 -17 -15 -18 -14 -18 40 0 50 2
57 20 57 14 0 20 7 20 23 0 21 -4 22 -70 22 -65 1 -70 -1 -70 -21 0 -13 8 -24
20 -27 17 -4 20 -14 20 -67 0 -34 -4 -60 -8 -58 -113 45 -122 52 -122 91 0 30
4 37 20 37 14 0 20 7 20 23 0 21 -4 22 -70 22 -65 1 -70 -1 -70 -21z"/>
<path d="M1764 1316 c-3 -8 -4 -31 -2 -52 2 -31 7 -40 25 -42 17 -3 22 2 25
25 2 23 8 29 36 31 l32 3 0 -115 c0 -111 -1 -116 -24 -132 -43 -27 -22 -44 55
-44 62 0 69 2 69 20 0 16 -7 20 -30 20 -27 0 -30 2 -20 19 5 11 10 67 10 125
l0 106 30 0 c27 0 30 -3 30 -30 0 -25 4 -30 26 -30 24 0 25 2 22 50 l-3 50
-138 4 c-110 4 -139 3 -143 -8z"/>
<path d="M1220 1290 c-18 -4 -26 -14 -28 -33 -2 -15 -10 -27 -18 -27 -8 0 -14
-9 -14 -20 0 -11 6 -19 13 -17 8 1 14 -23 17 -87 6 -102 17 -116 88 -116 36 0
43 3 40 17 -2 11 -15 20 -33 23 -30 5 -30 5 -33 83 l-3 77 31 0 c23 0 30 4 30
20 0 15 -7 20 -29 20 -26 0 -30 4 -33 33 -3 30 -6 32 -28 27z"/>
<path d="M538 1224 c-51 -27 -74 -112 -48 -178 12 -32 65 -66 103 -66 34 0 82
24 90 44 10 25 -31 41 -52 22 -19 -17 -49 -21 -67 -8 -11 7 -34 45 -34 56 0 3
39 6 86 6 l87 0 -7 43 c-12 80 -88 119 -158 81z m92 -53 c18 -34 12 -41 -40
-41 -37 0 -50 4 -50 14 0 41 71 62 90 27z"/>
<path d="M783 1226 c-36 -17 -38 -19 -23 -47 10 -18 13 -18 33 -4 41 29 97 14
97 -26 0 -12 -13 -18 -51 -23 -65 -9 -104 -44 -95 -84 14 -56 77 -79 124 -46
12 8 22 10 22 5 0 -6 18 -11 40 -11 33 0 40 3 40 20 0 11 -6 19 -12 17 -10 -1
-14 22 -16 84 -2 70 -6 90 -22 104 -26 23 -97 29 -137 11z m107 -156 c0 -23
-44 -55 -65 -46 -45 17 -22 66 31 66 27 0 34 -4 34 -20z"/>
<path d="M2187 1221 c-29 -15 -37 -16 -37 -5 0 10 -13 14 -45 14 -34 0 -45 -4
-45 -15 0 -9 8 -19 18 -22 26 -10 32 -23 32 -73 0 -62 -9 -87 -31 -93 -10 -3
-19 -12 -19 -21 0 -13 13 -16 71 -16 62 0 70 2 67 18 -2 9 -12 17 -24 16 -18
0 -19 5 -16 65 3 51 8 70 24 83 22 19 38 16 38 -8 0 -8 9 -14 20 -14 17 0 20
7 20 45 0 52 -13 57 -73 26z"/>
<path d="M2325 1224 c-39 -20 -38 -19 -24 -42 12 -19 15 -19 40 -6 49 25 89
13 89 -27 0 -12 -13 -18 -50 -23 -59 -8 -90 -34 -90 -75 0 -56 58 -85 116 -58
19 9 34 12 34 7 0 -6 18 -10 40 -10 29 0 40 4 40 15 0 9 -7 18 -15 21 -11 5
-15 24 -15 83 -1 44 -6 83 -13 92 -31 40 -99 51 -152 23z m105 -159 c0 -28
-31 -49 -60 -40 -12 4 -20 15 -20 29 0 30 7 36 47 36 28 0 33 -3 33 -25z"/>
<path d="M2604 1221 c-40 -25 -58 -69 -52 -132 7 -66 38 -99 100 -106 40 -5
49 -2 78 24 l34 30 -23 12 c-19 10 -26 10 -40 -3 -44 -40 -91 -5 -91 66 0 55
25 84 65 74 14 -4 25 -11 25 -16 0 -12 30 -13 48 -2 32 21 -29 72 -85 72 -15
0 -42 -9 -59 -19z"/>
<path d="M2940 1215 c0 -7 7 -18 15 -22 12 -7 9 -15 -19 -42 l-35 -34 32 -45
c42 -59 83 -92 113 -92 32 0 33 37 2 49 -13 5 -37 27 -55 48 l-32 40 38 37
c20 20 42 36 49 36 7 0 12 9 12 20 0 18 -7 20 -60 20 -46 0 -60 -3 -60 -15z"/>
<path d="M1242 786 c-11 -18 -37 -46 -58 -62 -93 -68 -134 -124 -134 -184 0
-52 125 -169 207 -194 21 -7 21 -5 12 26 -20 71 -10 128 33 174 19 22 19 22
-9 31 -15 6 -37 7 -48 2 -31 -12 -42 -10 -23 4 9 7 21 33 28 57 26 102 30 111
49 100 10 -5 21 -6 25 -3 3 3 6 -2 6 -12 0 -15 -3 -16 -12 -7 -17 17 -38 15
-38 -4 0 -14 12 -21 46 -28 4 0 13 15 21 34 l13 35 -5 -35 -5 -35 20 40 c18
37 19 38 15 10 l-5 -30 14 30 c18 37 10 46 -58 69 -67 22 -71 21 -94 -18z"/>
<path d="M1793 799 c-42 -16 -53 -25 -53 -43 0 -21 29 -71 30 -51 0 6 5 3 10
-5 8 -13 10 -13 10 -1 0 11 3 10 13 -3 11 -15 17 -17 35 -7 12 6 22 18 22 26
0 18 -12 19 -28 3 -6 -6 -15 -9 -18 -5 -10 9 -4 14 27 22 26 6 27 4 41 -57 9
-35 19 -72 23 -82 7 -16 5 -18 -8 -13 -15 6 -77 -10 -77 -19 0 -3 9 -17 21
-33 26 -35 34 -95 20 -146 -6 -21 -8 -41 -6 -44 3 -2 23 1 45 8 28 8 66 36
116 83 61 59 74 77 74 102 -1 48 -34 111 -76 142 -37 28 -106 95 -132 128 -16
20 -25 20 -89 -5z m-24 -79 c0 -10 -3 -8 -9 5 -12 27 -12 43 0 25 5 -8 9 -22
9 -30z"/>
<path d="M1353 555 c-97 -42 -78 -217 38 -349 45 -51 151 -136 169 -136 18 0
99 62 151 117 61 63 94 117 114 188 21 71 14 119 -21 156 -52 55 -123 46 -201
-25 l-40 -36 -43 40 c-38 35 -92 61 -125 60 -5 -1 -24 -7 -42 -15z"/>
</g>
</svg>
